<svg xmlns="http://www.w3.org/2000/svg" xmlns:xlink="http://www.w3.org/1999/xlink" width="72" zoomAndPan="magnify" viewBox="0 0 54 54" height="72" preserveAspectRatio="xMidYMid meet" version="1.0"><defs><clipPath id="id1"><path d="M 0.492188 0 L 53.507812 0 L 53.507812 53.019531 L 0.492188 53.019531 Z M 0.492188 0 " clip-rule="nonzero"/></clipPath><clipPath id="id2"><path d="M 21 2.652344 L 33 2.652344 L 33 14 L 21 14 Z M 21 2.652344 " clip-rule="nonzero"/></clipPath><clipPath id="id3"><path d="M 7 13 L 47 13 L 47 50.515625 L 7 50.515625 Z M 7 13 " clip-rule="nonzero"/></clipPath></defs><g clip-path="url(#id1)"><path fill="#00e0f6" d="M 27 0 C 12.359375 0 0.492188 11.867188 0.492188 26.507812 C 0.492188 41.148438 12.359375 53.019531 27 53.019531 C 41.640625 53.019531 53.507812 41.148438 53.507812 26.507812 C 53.507812 11.867188 41.640625 0 27 0 " fill-opacity="1" fill-rule="nonzero"/></g><g clip-path="url(#id2)"><path stroke-linecap="butt" transform="matrix(0.0934837, 0, 0, 0.0934837, 3.141818, 2.650911)" fill="none" stroke-linejoin="round" d="M 295.994844 56.007731 C 295.994844 61.314473 294.991995 66.412289 292.944511 71.301178 C 290.938813 76.190067 288.055622 80.535746 284.294938 84.29643 C 280.534255 88.015329 276.188575 90.940305 271.299686 92.946003 C 266.410797 94.993486 261.312982 95.996335 256.006239 95.996335 C 250.699496 95.996335 245.60168 94.993486 240.712791 92.946003 C 235.782117 90.940305 231.478223 88.015329 227.717539 84.29643 C 223.956855 80.535746 221.073664 76.190067 219.026181 71.301178 C 217.020483 66.412289 216.017634 61.314473 216.017634 56.007731 C 216.017634 50.700988 217.020483 45.603172 219.026181 40.672498 C 221.073664 35.783609 223.956855 31.479715 227.717539 27.719031 C 231.478223 23.958347 235.782117 21.075156 240.712791 19.027673 C 245.60168 17.021975 250.699496 16.019126 256.006239 16.019126 C 261.312982 16.019126 266.410797 17.021975 271.299686 19.027673 C 276.188575 21.075156 280.534255 23.958347 284.294938 27.719031 C 288.055622 31.479715 290.938813 35.783609 292.944511 40.672498 C 294.991995 45.603172 295.994844 50.700988 295.994844 56.007731 Z M 295.994844 56.007731 " stroke="#000000" stroke-width="32" stroke-opacity="1" stroke-miterlimit="4"/></g><g clip-path="url(#id3)"><path stroke-linecap="butt" transform="matrix(0.0934837, 0, 0, 0.0934837, 3.141818, 2.650911)" fill="none" stroke-linejoin="round" d="M 204.234158 274.419891 C 207.117349 256.368609 208.412695 238.902322 203.732733 226.868133 C 199.721337 216.463575 191.029979 210.655407 180.54185 206.685797 L 87.987242 176.767467 C 75.994839 172.756071 64.796358 166.070411 64.002436 152.824447 C 62.999587 135.817799 78.000537 124.828245 93.001487 128.839641 C 93.001487 128.839641 181.001489 159.969746 256.006239 159.969746 C 331.010989 159.969746 418.008142 128.964997 418.008142 128.964997 C 436.017639 123.950752 448.010042 137.948853 448.010042 152.740876 C 448.010042 166.947904 437.020488 171.962149 423.983451 176.683897 L 335.983449 208.607924 C 328.002442 211.616471 315.00719 217.59178 309.992945 226.784563 C 304.017636 237.523404 305.020485 256.326824 307.903676 274.378106 L 313.795414 304.003938 L 351.193326 467.886183 C 353.992946 481.048576 344.925519 493.333477 331.804911 495.631672 C 318.726088 497.929868 307.987247 488.987798 304.101207 476.285043 L 266.577939 360.330625 C 264.739382 354.77317 263.151538 349.173929 261.772621 343.491118 L 256.006239 320.007737 L 250.699496 341.652562 C 249.028081 348.547149 247.105954 355.358165 244.891329 362.127396 L 207.994842 476.159687 C 203.983446 489.029583 193.495316 497.929868 180.416493 495.631672 C 167.295885 493.333477 158.019532 480.045727 160.944508 467.886183 L 198.34242 304.087508 Z M 204.234158 274.419891 " stroke="#000000" stroke-width="32" stroke-opacity="1" stroke-miterlimit="4"/></g></svg>