<svg xmlns="http://www.w3.org/2000/svg" xmlns:xlink="http://www.w3.org/1999/xlink" width="72" zoomAndPan="magnify" viewBox="0 0 54 54" height="72" preserveAspectRatio="xMidYMid meet" version="1.0"><defs><clipPath id="id1"><path d="M 0.492188 0 L 53.507812 0 L 53.507812 53.019531 L 0.492188 53.019531 Z M 0.492188 0 " clip-rule="nonzero"/></clipPath></defs><g clip-path="url(#id1)"><path fill="#00e0f6" d="M 27 0 C 12.359375 0 0.492188 11.867188 0.492188 26.507812 C 0.492188 41.148438 12.359375 53.019531 27 53.019531 C 41.640625 53.019531 53.507812 41.148438 53.507812 26.507812 C 53.507812 11.867188 41.640625 0 27 0 " fill-opacity="1" fill-rule="nonzero"/></g><path stroke-linecap="round" transform="matrix(0.102113, 0, 0, 0.102113, 0.969545, -1.17818)" fill="none" stroke-linejoin="round" d="M 79.981782 224.001935 L 117.776949 135.864217 C 123.935878 121.518885 139.581853 111.993585 157.102285 111.993585 L 354.876592 111.993585 C 372.397024 111.993585 388.081253 121.518885 394.201928 135.864217 L 431.997095 224.001935 M 79.981782 224.001935 L 431.997095 224.001935 L 431.997095 367.990811 L 79.981782 367.990811 Z M 112.000562 367.990811 L 112.000562 400.009592 L 79.981782 400.009592 L 79.981782 367.990811 M 431.997095 367.990811 L 431.997095 400.009592 L 400.016569 400.009592 L 400.016569 367.990811 " stroke="#000000" stroke-width="32" stroke-opacity="1" stroke-miterlimit="4"/><path stroke-linecap="round" transform="matrix(0.102113, 0, 0, 0.102113, 0.969545, -1.17818)" fill="none" stroke-linejoin="round" d="M 160.009606 288.001242 C 160.009606 290.105224 159.588809 292.170952 158.785471 294.121917 C 157.982132 296.072882 156.796251 297.794322 155.304337 299.32449 C 153.812422 300.816405 152.090983 301.964031 150.140017 302.76737 C 148.150798 303.608963 146.123325 303.991505 143.981088 303.991505 C 141.877106 303.991505 139.849633 303.608963 137.860413 302.76737 C 135.909448 301.964031 134.188009 300.816405 132.696094 299.32449 C 131.20418 297.794322 130.018299 296.072882 129.21496 294.121917 C 128.411622 292.170952 127.990825 290.105224 127.990825 288.001242 C 127.990825 285.89726 128.411622 283.831532 129.21496 281.880567 C 130.018299 279.929602 131.20418 278.169908 132.696094 276.677993 C 134.188009 275.186079 135.909448 274.038452 137.860413 273.235114 C 139.849633 272.393521 141.877106 272.010979 143.981088 272.010979 C 146.123325 272.010979 148.150798 272.393521 150.140017 273.235114 C 152.090983 274.038452 153.812422 275.186079 155.304337 276.677993 C 156.796251 278.169908 157.982132 279.929602 158.785471 281.880567 C 159.588809 283.831532 160.009606 285.89726 160.009606 288.001242 Z M 160.009606 288.001242 " stroke="#000000" stroke-width="32" stroke-opacity="1" stroke-miterlimit="4"/><path stroke-linecap="round" transform="matrix(0.102113, 0, 0, 0.102113, 0.969545, -1.17818)" fill="none" stroke-linejoin="round" d="M 383.988052 288.001242 C 383.988052 290.105224 383.605509 292.170952 382.763917 294.121917 C 381.960578 296.072882 380.812951 297.794322 379.321037 299.32449 C 377.829122 300.816405 376.069428 301.964031 374.118463 302.76737 C 372.167498 303.608963 370.140025 303.991505 367.997788 303.991505 C 365.893806 303.991505 363.828079 303.608963 361.877114 302.76737 C 359.926148 301.964031 358.204709 300.816405 356.67454 299.32449 C 355.182625 297.794322 354.034999 296.072882 353.23166 294.121917 C 352.390068 292.170952 352.007525 290.105224 352.007525 288.001242 C 352.007525 285.89726 352.390068 283.831532 353.23166 281.880567 C 354.034999 279.929602 355.182625 278.169908 356.67454 276.677993 C 358.204709 275.186079 359.926148 274.038452 361.877114 273.235114 C 363.828079 272.393521 365.893806 272.010979 367.997788 272.010979 C 370.140025 272.010979 372.167498 272.393521 374.118463 273.235114 C 376.069428 274.038452 377.829122 275.186079 379.321037 276.677993 C 380.812951 278.169908 381.960578 279.929602 382.763917 281.880567 C 383.605509 283.831532 383.988052 285.89726 383.988052 288.001242 Z M 383.988052 288.001242 " stroke="#000000" stroke-width="32" stroke-opacity="1" stroke-miterlimit="4"/></svg>