<svg xmlns="http://www.w3.org/2000/svg" xmlns:xlink="http://www.w3.org/1999/xlink" width="72" zoomAndPan="magnify" viewBox="0 0 54 54" height="72" preserveAspectRatio="xMidYMid meet" version="1.0"><defs><clipPath id="id1"><path d="M 0.492188 0 L 53.507812 0 L 53.507812 53.019531 L 0.492188 53.019531 Z M 0.492188 0 " clip-rule="nonzero"/></clipPath></defs><g clip-path="url(#id1)"><path fill="#00e0f6" d="M 27 0 C 12.359375 0 0.492188 11.867188 0.492188 26.507812 C 0.492188 41.148438 12.359375 53.019531 27 53.019531 C 41.640625 53.019531 53.507812 41.148438 53.507812 26.507812 C 53.507812 11.867188 41.640625 0 27 0 " fill-opacity="1" fill-rule="nonzero"/></g><path stroke-linecap="round" transform="matrix(0.0791016, 0, 0, 0.0791016, 6.786818, 6.295911)" fill="none" stroke-linejoin="round" d="M 175.979001 416.012202 L 175.979001 480.012204 M 79.978998 32.01219 L 271.979004 32.01219 C 276.225918 32.01219 280.324683 32.802313 284.225918 34.431943 C 288.176535 36.061573 291.633326 38.382561 294.645671 41.394906 C 297.608634 44.357869 299.929622 47.81466 301.559252 51.765277 C 303.188881 55.666512 303.979005 59.765277 303.979005 64.012191 L 303.979005 476.012204 C 303.979005 477.098624 303.633326 478.036896 302.843202 478.827019 C 302.053079 479.617143 301.114807 480.012204 299.979005 480.012204 L 47.978997 480.012204 L 47.978997 64.012191 C 47.978997 59.765277 48.818503 55.666512 50.448133 51.765277 C 52.077762 47.81466 54.349367 44.357869 57.361713 41.394906 C 60.374059 38.382561 63.830849 36.061573 67.732084 34.431943 C 71.682701 32.802313 75.732084 32.01219 79.978998 32.01219 Z M 319.979005 192.012195 L 431.979009 192.012195 C 436.225923 192.012195 440.324688 192.802319 444.225923 194.431948 C 448.17654 196.061578 451.633331 198.382566 454.645677 201.394911 C 457.60864 204.357875 459.929627 207.814665 461.559257 211.765282 C 463.188887 215.666517 463.97901 219.765282 463.97901 224.012196 L 463.97901 480.012204 L 303.979005 480.012204 L 303.979005 208.012196 C 303.979005 205.888739 304.423449 203.814665 305.213573 201.888739 C 306.053079 199.91343 307.188882 198.185035 308.670363 196.703553 C 310.201227 195.172689 311.929622 194.036887 313.855548 193.19738 C 315.830857 192.407257 317.855549 192.012195 319.979005 192.012195 Z M 319.979005 192.012195 " stroke="#000000" stroke-width="32" stroke-opacity="1" stroke-miterlimit="4"/><path fill="#000000" d="M 14.546875 40.457031 C 14.371094 40.480469 14.195312 40.46875 14.027344 40.417969 C 13.855469 40.367188 13.703125 40.285156 13.566406 40.171875 C 13.429688 40.058594 13.324219 39.921875 13.246094 39.761719 C 13.167969 39.601562 13.125 39.433594 13.117188 39.257812 C 13.109375 39.082031 13.136719 38.910156 13.203125 38.742188 C 13.265625 38.578125 13.359375 38.433594 13.484375 38.308594 C 13.613281 38.183594 13.757812 38.085938 13.921875 38.023438 C 14.085938 37.957031 14.257812 37.929688 14.4375 37.9375 C 14.613281 37.945312 14.78125 37.988281 14.941406 38.066406 C 15.097656 38.144531 15.234375 38.253906 15.351562 38.386719 C 15.464844 38.523438 15.546875 38.675781 15.597656 38.847656 C 15.644531 39.019531 15.660156 39.191406 15.636719 39.367188 C 15.597656 39.652344 15.480469 39.894531 15.277344 40.097656 C 15.074219 40.300781 14.828125 40.421875 14.546875 40.457031 Z M 14.546875 34.128906 C 14.371094 34.152344 14.195312 34.140625 14.027344 34.089844 C 13.855469 34.039062 13.703125 33.957031 13.566406 33.84375 C 13.429688 33.730469 13.324219 33.59375 13.246094 33.433594 C 13.167969 33.273438 13.125 33.105469 13.117188 32.929688 C 13.109375 32.753906 13.136719 32.582031 13.203125 32.414062 C 13.265625 32.25 13.359375 32.105469 13.484375 31.980469 C 13.613281 31.855469 13.757812 31.757812 13.921875 31.695312 C 14.085938 31.628906 14.257812 31.601562 14.4375 31.609375 C 14.613281 31.617188 14.78125 31.660156 14.941406 31.738281 C 15.097656 31.816406 15.234375 31.925781 15.351562 32.058594 C 15.464844 32.195312 15.546875 32.347656 15.597656 32.519531 C 15.644531 32.691406 15.660156 32.863281 15.636719 33.039062 C 15.597656 33.324219 15.480469 33.566406 15.277344 33.769531 C 15.074219 33.972656 14.828125 34.09375 14.546875 34.128906 Z M 14.546875 27.800781 C 14.371094 27.824219 14.195312 27.8125 14.027344 27.761719 C 13.855469 27.710938 13.703125 27.628906 13.566406 27.515625 C 13.429688 27.402344 13.324219 27.265625 13.246094 27.105469 C 13.167969 26.945312 13.125 26.777344 13.117188 26.601562 C 13.109375 26.425781 13.136719 26.253906 13.203125 26.085938 C 13.265625 25.921875 13.359375 25.777344 13.484375 25.652344 C 13.613281 25.527344 13.757812 25.429688 13.921875 25.367188 C 14.085938 25.300781 14.257812 25.273438 14.4375 25.28125 C 14.613281 25.289062 14.78125 25.332031 14.941406 25.410156 C 15.097656 25.488281 15.234375 25.597656 15.351562 25.730469 C 15.464844 25.867188 15.546875 26.019531 15.597656 26.191406 C 15.644531 26.363281 15.660156 26.535156 15.636719 26.710938 C 15.597656 26.996094 15.480469 27.238281 15.277344 27.441406 C 15.074219 27.644531 14.828125 27.765625 14.546875 27.800781 Z M 14.546875 21.472656 C 14.371094 21.496094 14.195312 21.484375 14.027344 21.433594 C 13.855469 21.382812 13.703125 21.300781 13.566406 21.1875 C 13.429688 21.074219 13.324219 20.9375 13.246094 20.777344 C 13.167969 20.617188 13.125 20.449219 13.117188 20.273438 C 13.109375 20.097656 13.136719 19.925781 13.203125 19.757812 C 13.265625 19.59375 13.359375 19.449219 13.484375 19.324219 C 13.613281 19.199219 13.757812 19.101562 13.921875 19.039062 C 14.085938 18.972656 14.257812 18.945312 14.4375 18.953125 C 14.613281 18.960938 14.78125 19.003906 14.941406 19.082031 C 15.097656 19.160156 15.234375 19.269531 15.351562 19.402344 C 15.464844 19.539062 15.546875 19.691406 15.597656 19.863281 C 15.644531 20.035156 15.660156 20.207031 15.636719 20.382812 C 15.597656 20.667969 15.480469 20.910156 15.277344 21.113281 C 15.074219 21.316406 14.828125 21.4375 14.546875 21.472656 Z M 14.546875 15.144531 C 14.371094 15.167969 14.195312 15.15625 14.027344 15.105469 C 13.855469 15.054688 13.703125 14.972656 13.566406 14.859375 C 13.429688 14.746094 13.324219 14.609375 13.246094 14.449219 C 13.167969 14.289062 13.125 14.121094 13.117188 13.945312 C 13.109375 13.769531 13.136719 13.597656 13.203125 13.429688 C 13.265625 13.265625 13.359375 13.121094 13.484375 12.996094 C 13.613281 12.871094 13.757812 12.773438 13.921875 12.710938 C 14.085938 12.644531 14.257812 12.617188 14.4375 12.625 C 14.613281 12.632812 14.78125 12.675781 14.941406 12.753906 C 15.097656 12.832031 15.234375 12.941406 15.351562 13.074219 C 15.464844 13.210938 15.546875 13.363281 15.597656 13.535156 C 15.644531 13.707031 15.660156 13.878906 15.636719 14.054688 C 15.597656 14.339844 15.480469 14.582031 15.277344 14.785156 C 15.074219 14.988281 14.828125 15.109375 14.546875 15.144531 Z M 20.875 34.128906 C 20.699219 34.152344 20.523438 34.140625 20.355469 34.089844 C 20.183594 34.039062 20.03125 33.957031 19.894531 33.84375 C 19.757812 33.730469 19.652344 33.59375 19.574219 33.433594 C 19.496094 33.273438 19.453125 33.105469 19.445312 32.929688 C 19.4375 32.753906 19.464844 32.582031 19.53125 32.414062 C 19.59375 32.25 19.6875 32.105469 19.8125 31.980469 C 19.941406 31.855469 20.085938 31.757812 20.25 31.695312 C 20.414062 31.628906 20.585938 31.601562 20.765625 31.609375 C 20.941406 31.617188 21.109375 31.660156 21.269531 31.738281 C 21.425781 31.816406 21.5625 31.925781 21.679688 32.058594 C 21.792969 32.195312 21.875 32.347656 21.925781 32.519531 C 21.972656 32.691406 21.988281 32.863281 21.964844 33.039062 C 21.925781 33.324219 21.808594 33.566406 21.605469 33.769531 C 21.402344 33.972656 21.15625 34.09375 20.875 34.128906 Z M 20.875 27.800781 C 20.699219 27.824219 20.523438 27.8125 20.355469 27.761719 C 20.183594 27.710938 20.03125 27.628906 19.894531 27.515625 C 19.757812 27.402344 19.652344 27.265625 19.574219 27.105469 C 19.496094 26.945312 19.453125 26.777344 19.445312 26.601562 C 19.4375 26.425781 19.464844 26.253906 19.53125 26.085938 C 19.59375 25.921875 19.6875 25.777344 19.8125 25.652344 C 19.941406 25.527344 20.085938 25.429688 20.25 25.367188 C 20.414062 25.300781 20.585938 25.273438 20.765625 25.28125 C 20.941406 25.289062 21.109375 25.332031 21.269531 25.410156 C 21.425781 25.488281 21.5625 25.597656 21.679688 25.730469 C 21.792969 25.867188 21.875 26.019531 21.925781 26.191406 C 21.972656 26.363281 21.988281 26.535156 21.964844 26.710938 C 21.925781 26.996094 21.808594 27.238281 21.605469 27.441406 C 21.402344 27.644531 21.15625 27.765625 20.875 27.800781 Z M 20.875 21.472656 C 20.699219 21.496094 20.523438 21.484375 20.355469 21.433594 C 20.183594 21.382812 20.03125 21.300781 19.894531 21.1875 C 19.757812 21.074219 19.652344 20.9375 19.574219 20.777344 C 19.496094 20.617188 19.453125 20.449219 19.445312 20.273438 C 19.4375 20.097656 19.464844 19.925781 19.53125 19.757812 C 19.59375 19.59375 19.6875 19.449219 19.8125 19.324219 C 19.941406 19.199219 20.085938 19.101562 20.25 19.039062 C 20.414062 18.972656 20.585938 18.945312 20.765625 18.953125 C 20.941406 18.960938 21.109375 19.003906 21.269531 19.082031 C 21.425781 19.160156 21.5625 19.269531 21.679688 19.402344 C 21.792969 19.539062 21.875 19.691406 21.925781 19.863281 C 21.972656 20.035156 21.988281 20.207031 21.964844 20.382812 C 21.925781 20.667969 21.808594 20.910156 21.605469 21.113281 C 21.402344 21.316406 21.15625 21.4375 20.875 21.472656 Z M 20.875 15.144531 C 20.699219 15.167969 20.523438 15.15625 20.355469 15.105469 C 20.183594 15.054688 20.03125 14.972656 19.894531 14.859375 C 19.757812 14.746094 19.652344 14.609375 19.574219 14.449219 C 19.496094 14.289062 19.453125 14.121094 19.445312 13.945312 C 19.4375 13.769531 19.464844 13.597656 19.53125 13.429688 C 19.59375 13.265625 19.6875 13.121094 19.8125 12.996094 C 19.941406 12.871094 20.085938 12.773438 20.25 12.710938 C 20.414062 12.644531 20.585938 12.617188 20.765625 12.625 C 20.941406 12.632812 21.109375 12.675781 21.269531 12.753906 C 21.425781 12.832031 21.5625 12.941406 21.679688 13.074219 C 21.792969 13.210938 21.875 13.363281 21.925781 13.535156 C 21.972656 13.707031 21.988281 13.878906 21.964844 14.054688 C 21.925781 14.339844 21.808594 14.582031 21.605469 14.785156 C 21.402344 14.988281 21.15625 15.109375 20.875 15.144531 Z M 27.203125 40.457031 C 27.027344 40.480469 26.851562 40.46875 26.683594 40.417969 C 26.511719 40.367188 26.359375 40.285156 26.222656 40.171875 C 26.085938 40.058594 25.980469 39.921875 25.902344 39.761719 C 25.824219 39.601562 25.78125 39.433594 25.773438 39.257812 C 25.765625 39.082031 25.792969 38.910156 25.859375 38.742188 C 25.921875 38.578125 26.015625 38.433594 26.140625 38.308594 C 26.269531 38.183594 26.414062 38.085938 26.578125 38.023438 C 26.742188 37.957031 26.914062 37.929688 27.09375 37.9375 C 27.269531 37.945312 27.4375 37.988281 27.597656 38.066406 C 27.753906 38.144531 27.890625 38.253906 28.007812 38.386719 C 28.121094 38.523438 28.203125 38.675781 28.253906 38.847656 C 28.300781 39.019531 28.316406 39.191406 28.292969 39.367188 C 28.253906 39.652344 28.136719 39.894531 27.933594 40.097656 C 27.730469 40.300781 27.484375 40.421875 27.203125 40.457031 Z M 27.203125 34.128906 C 27.027344 34.152344 26.851562 34.140625 26.683594 34.089844 C 26.511719 34.039062 26.359375 33.957031 26.222656 33.84375 C 26.085938 33.730469 25.980469 33.59375 25.902344 33.433594 C 25.824219 33.273438 25.78125 33.105469 25.773438 32.929688 C 25.765625 32.753906 25.792969 32.582031 25.859375 32.414062 C 25.921875 32.25 26.015625 32.105469 26.140625 31.980469 C 26.269531 31.855469 26.414062 31.757812 26.578125 31.695312 C 26.742188 31.628906 26.914062 31.601562 27.09375 31.609375 C 27.269531 31.617188 27.4375 31.660156 27.597656 31.738281 C 27.753906 31.816406 27.890625 31.925781 28.007812 32.058594 C 28.121094 32.195312 28.203125 32.347656 28.253906 32.519531 C 28.300781 32.691406 28.316406 32.863281 28.292969 33.039062 C 28.253906 33.324219 28.136719 33.566406 27.933594 33.769531 C 27.730469 33.972656 27.484375 34.09375 27.203125 34.128906 Z M 27.203125 27.800781 C 27.027344 27.824219 26.851562 27.8125 26.683594 27.761719 C 26.511719 27.710938 26.359375 27.628906 26.222656 27.515625 C 26.085938 27.402344 25.980469 27.265625 25.902344 27.105469 C 25.824219 26.945312 25.78125 26.777344 25.773438 26.601562 C 25.765625 26.425781 25.792969 26.253906 25.859375 26.085938 C 25.921875 25.921875 26.015625 25.777344 26.140625 25.652344 C 26.269531 25.527344 26.414062 25.429688 26.578125 25.367188 C 26.742188 25.300781 26.914062 25.273438 27.09375 25.28125 C 27.269531 25.289062 27.4375 25.332031 27.597656 25.410156 C 27.753906 25.488281 27.890625 25.597656 28.007812 25.730469 C 28.121094 25.867188 28.203125 26.019531 28.253906 26.191406 C 28.300781 26.363281 28.316406 26.535156 28.292969 26.710938 C 28.253906 26.996094 28.136719 27.238281 27.933594 27.441406 C 27.730469 27.644531 27.484375 27.765625 27.203125 27.800781 Z M 27.203125 27.800781 " fill-opacity="1" fill-rule="nonzero"/><path fill="#000000" d="M 27.929688 19.324219 C 28.046875 19.445312 28.140625 19.582031 28.203125 19.734375 C 28.269531 19.890625 28.300781 20.050781 28.300781 20.21875 C 28.300781 20.386719 28.269531 20.550781 28.207031 20.703125 C 28.144531 20.859375 28.050781 20.996094 27.933594 21.113281 C 27.816406 21.230469 27.679688 21.324219 27.523438 21.386719 C 27.367188 21.449219 27.207031 21.480469 27.039062 21.480469 C 26.871094 21.480469 26.710938 21.449219 26.554688 21.382812 C 26.402344 21.320312 26.261719 21.226562 26.144531 21.109375 C 26.027344 20.992188 25.933594 20.851562 25.871094 20.699219 C 25.804688 20.542969 25.773438 20.382812 25.773438 20.214844 C 25.773438 20.046875 25.804688 19.886719 25.867188 19.730469 C 25.929688 19.574219 26.023438 19.4375 26.140625 19.320312 C 26.257812 19.203125 26.394531 19.109375 26.550781 19.046875 C 26.703125 18.984375 26.867188 18.953125 27.035156 18.953125 C 27.203125 18.953125 27.363281 18.984375 27.519531 19.050781 C 27.671875 19.113281 27.808594 19.207031 27.929688 19.324219 Z M 27.929688 19.324219 " fill-opacity="1" fill-rule="nonzero"/><path fill="#000000" d="M 27.203125 15.144531 C 27.027344 15.167969 26.851562 15.15625 26.683594 15.105469 C 26.511719 15.054688 26.359375 14.972656 26.222656 14.859375 C 26.085938 14.746094 25.980469 14.609375 25.902344 14.449219 C 25.824219 14.289062 25.78125 14.121094 25.773438 13.945312 C 25.765625 13.769531 25.792969 13.597656 25.859375 13.429688 C 25.921875 13.265625 26.015625 13.121094 26.140625 12.996094 C 26.269531 12.871094 26.414062 12.773438 26.578125 12.710938 C 26.742188 12.644531 26.914062 12.617188 27.09375 12.625 C 27.269531 12.632812 27.4375 12.675781 27.597656 12.753906 C 27.753906 12.832031 27.890625 12.941406 28.007812 13.074219 C 28.121094 13.210938 28.203125 13.363281 28.253906 13.535156 C 28.300781 13.707031 28.316406 13.878906 28.292969 14.054688 C 28.253906 14.339844 28.136719 14.582031 27.933594 14.785156 C 27.730469 14.988281 27.484375 15.109375 27.203125 15.144531 Z M 38.425781 37.9375 C 38.257812 37.9375 38.097656 37.96875 37.941406 38.03125 C 37.789062 38.097656 37.652344 38.1875 37.53125 38.308594 C 37.414062 38.425781 37.324219 38.5625 37.257812 38.71875 C 37.195312 38.871094 37.160156 39.035156 37.160156 39.203125 C 37.160156 39.371094 37.195312 39.53125 37.257812 39.6875 C 37.324219 39.839844 37.414062 39.976562 37.53125 40.097656 C 37.652344 40.214844 37.789062 40.308594 37.941406 40.371094 C 38.097656 40.4375 38.257812 40.46875 38.425781 40.46875 C 38.59375 40.46875 38.757812 40.4375 38.910156 40.371094 C 39.066406 40.308594 39.203125 40.214844 39.324219 40.097656 C 39.441406 39.976562 39.53125 39.839844 39.597656 39.6875 C 39.660156 39.53125 39.691406 39.371094 39.691406 39.203125 C 39.691406 39.035156 39.660156 38.871094 39.597656 38.71875 C 39.53125 38.5625 39.441406 38.425781 39.324219 38.308594 C 39.203125 38.1875 39.066406 38.097656 38.910156 38.03125 C 38.757812 37.96875 38.59375 37.9375 38.425781 37.9375 Z M 38.425781 31.609375 C 38.257812 31.609375 38.097656 31.640625 37.941406 31.703125 C 37.789062 31.769531 37.652344 31.859375 37.53125 31.980469 C 37.414062 32.097656 37.324219 32.234375 37.257812 32.390625 C 37.195312 32.542969 37.160156 32.707031 37.160156 32.875 C 37.160156 33.042969 37.195312 33.203125 37.257812 33.359375 C 37.324219 33.511719 37.414062 33.648438 37.53125 33.769531 C 37.652344 33.886719 37.789062 33.980469 37.941406 34.042969 C 38.097656 34.109375 38.257812 34.140625 38.425781 34.140625 C 38.59375 34.140625 38.757812 34.109375 38.910156 34.042969 C 39.066406 33.980469 39.203125 33.886719 39.324219 33.769531 C 39.441406 33.648438 39.53125 33.511719 39.597656 33.359375 C 39.660156 33.203125 39.691406 33.042969 39.691406 32.875 C 39.691406 32.707031 39.660156 32.542969 39.597656 32.390625 C 39.53125 32.234375 39.441406 32.097656 39.324219 31.980469 C 39.203125 31.859375 39.066406 31.769531 38.910156 31.703125 C 38.757812 31.640625 38.59375 31.609375 38.425781 31.609375 Z M 38.425781 25.28125 C 38.257812 25.28125 38.097656 25.3125 37.941406 25.375 C 37.789062 25.441406 37.652344 25.53125 37.53125 25.652344 C 37.414062 25.769531 37.324219 25.90625 37.257812 26.0625 C 37.195312 26.214844 37.160156 26.378906 37.160156 26.546875 C 37.160156 26.714844 37.195312 26.875 37.257812 27.03125 C 37.324219 27.183594 37.414062 27.320312 37.53125 27.441406 C 37.652344 27.558594 37.789062 27.652344 37.941406 27.714844 C 38.097656 27.78125 38.257812 27.8125 38.425781 27.8125 C 38.59375 27.8125 38.757812 27.78125 38.910156 27.714844 C 39.066406 27.652344 39.203125 27.558594 39.324219 27.441406 C 39.441406 27.320312 39.53125 27.183594 39.597656 27.03125 C 39.660156 26.875 39.691406 26.714844 39.691406 26.546875 C 39.691406 26.378906 39.660156 26.214844 39.597656 26.0625 C 39.53125 25.90625 39.441406 25.769531 39.324219 25.652344 C 39.203125 25.53125 39.066406 25.441406 38.910156 25.375 C 38.757812 25.3125 38.59375 25.28125 38.425781 25.28125 Z M 33.363281 37.9375 C 33.195312 37.9375 33.035156 37.96875 32.878906 38.03125 C 32.726562 38.097656 32.589844 38.1875 32.46875 38.308594 C 32.351562 38.425781 32.261719 38.5625 32.195312 38.71875 C 32.132812 38.871094 32.097656 39.035156 32.097656 39.203125 C 32.097656 39.371094 32.132812 39.53125 32.195312 39.6875 C 32.261719 39.839844 32.351562 39.976562 32.46875 40.097656 C 32.589844 40.214844 32.726562 40.308594 32.878906 40.371094 C 33.035156 40.4375 33.195312 40.46875 33.363281 40.46875 C 33.53125 40.46875 33.695312 40.4375 33.847656 40.371094 C 34.003906 40.308594 34.140625 40.214844 34.261719 40.097656 C 34.378906 39.976562 34.46875 39.839844 34.535156 39.6875 C 34.597656 39.53125 34.628906 39.371094 34.628906 39.203125 C 34.628906 39.035156 34.597656 38.871094 34.535156 38.71875 C 34.46875 38.5625 34.378906 38.425781 34.261719 38.308594 C 34.140625 38.1875 34.003906 38.097656 33.847656 38.03125 C 33.695312 37.96875 33.53125 37.9375 33.363281 37.9375 Z M 33.363281 31.609375 C 33.195312 31.609375 33.035156 31.640625 32.878906 31.703125 C 32.726562 31.769531 32.589844 31.859375 32.46875 31.980469 C 32.351562 32.097656 32.261719 32.234375 32.195312 32.390625 C 32.132812 32.542969 32.097656 32.707031 32.097656 32.875 C 32.097656 33.042969 32.132812 33.203125 32.195312 33.359375 C 32.261719 33.511719 32.351562 33.648438 32.46875 33.769531 C 32.589844 33.886719 32.726562 33.980469 32.878906 34.042969 C 33.035156 34.109375 33.195312 34.140625 33.363281 34.140625 C 33.53125 34.140625 33.695312 34.109375 33.847656 34.042969 C 34.003906 33.980469 34.140625 33.886719 34.261719 33.769531 C 34.378906 33.648438 34.46875 33.511719 34.535156 33.359375 C 34.597656 33.203125 34.628906 33.042969 34.628906 32.875 C 34.628906 32.707031 34.597656 32.542969 34.535156 32.390625 C 34.46875 32.234375 34.378906 32.097656 34.261719 31.980469 C 34.140625 31.859375 34.003906 31.769531 33.847656 31.703125 C 33.695312 31.640625 33.53125 31.609375 33.363281 31.609375 Z M 33.363281 25.28125 C 33.195312 25.28125 33.035156 25.3125 32.878906 25.375 C 32.726562 25.441406 32.589844 25.53125 32.46875 25.652344 C 32.351562 25.769531 32.261719 25.90625 32.195312 26.0625 C 32.132812 26.214844 32.097656 26.378906 32.097656 26.546875 C 32.097656 26.714844 32.132812 26.875 32.195312 27.03125 C 32.261719 27.183594 32.351562 27.320312 32.46875 27.441406 C 32.589844 27.558594 32.726562 27.652344 32.878906 27.714844 C 33.035156 27.78125 33.195312 27.8125 33.363281 27.8125 C 33.53125 27.8125 33.695312 27.78125 33.847656 27.714844 C 34.003906 27.652344 34.140625 27.558594 34.261719 27.441406 C 34.378906 27.320312 34.46875 27.183594 34.535156 27.03125 C 34.597656 26.875 34.628906 26.714844 34.628906 26.546875 C 34.628906 26.378906 34.597656 26.214844 34.535156 26.0625 C 34.46875 25.90625 34.378906 25.769531 34.261719 25.652344 C 34.140625 25.53125 34.003906 25.441406 33.847656 25.375 C 33.695312 25.3125 33.53125 25.28125 33.363281 25.28125 Z M 33.363281 25.28125 " fill-opacity="1" fill-rule="nonzero"/></svg>