<svg xmlns="http://www.w3.org/2000/svg" xmlns:xlink="http://www.w3.org/1999/xlink" width="72" zoomAndPan="magnify" viewBox="0 0 54 54" height="72" preserveAspectRatio="xMidYMid meet" version="1.0"><defs><clipPath id="id1"><path d="M 0.492188 0 L 53.507812 0 L 53.507812 53.019531 L 0.492188 53.019531 Z M 0.492188 0 " clip-rule="nonzero"/></clipPath></defs><g clip-path="url(#id1)"><path fill="#00e0f6" d="M 27 0 C 12.359375 0 0.492188 11.867188 0.492188 26.507812 C 0.492188 41.148438 12.359375 53.019531 27 53.019531 C 41.640625 53.019531 53.507812 41.148438 53.507812 26.507812 C 53.507812 11.867188 41.640625 0 27 0 " fill-opacity="1" fill-rule="nonzero"/></g><path stroke-linecap="round" transform="matrix(0.0848544, 0, 0, 0.0848544, 5.277272, 4.786365)" fill="none" stroke-linejoin="round" d="M 80.009214 212.021749 L 80.009214 447.995811 C 80.009214 450.113409 80.423527 452.184973 81.206118 454.118432 C 82.034743 456.097925 83.185611 457.801211 84.704758 459.320357 C 86.177869 460.793468 87.927189 461.990372 89.860648 462.772962 C 91.840142 463.601587 93.86567 464.0159 95.983268 464.0159 L 192.01173 464.0159 L 192.01173 327.983252 C 192.01173 324.806855 192.610181 321.768562 193.807085 318.822339 C 195.050022 315.876116 196.799342 313.298171 199.00901 311.042469 C 201.264712 308.786766 203.888692 307.037446 206.834915 305.840543 C 209.735104 304.597605 212.819431 303.999154 215.995828 303.999154 L 296.004201 303.999154 C 299.180598 303.999154 302.264925 304.597605 305.165114 305.840543 C 308.111337 307.037446 310.735317 308.786766 312.991019 311.042469 C 315.200686 313.298171 316.950006 315.876116 318.192944 318.822339 C 319.389847 321.768562 319.988299 324.806855 319.988299 327.983252 L 319.988299 464.0159 L 416.016761 464.0159 C 418.134358 464.0159 420.159887 463.601587 422.139381 462.772962 C 424.07284 461.990372 425.82216 460.793468 427.295271 459.320357 C 428.814417 457.801211 429.965286 456.097925 430.793911 454.118432 C 431.576502 452.184973 431.990814 450.113409 431.990814 447.995811 L 431.990814 212.021749 " stroke="#000000" stroke-width="32" stroke-opacity="1" stroke-miterlimit="4"/><path stroke-linecap="round" transform="matrix(0.0848544, 0, 0, 0.0848544, 5.277272, 4.786365)" fill="none" stroke-linejoin="round" d="M 480.005045 255.984923 L 266.910247 52.005003 C 261.892461 46.711008 250.199637 46.664973 245.089782 52.005003 L 31.994984 255.984923 M 399.996672 179.014843 L 399.996672 64.020069 L 351.982441 64.020069 L 351.982441 132.980105 " stroke="#000000" stroke-width="32" stroke-opacity="1" stroke-miterlimit="4"/></svg>